<svg version="1.1" id="Layer_1" xmlns="http://www.w3.org/2000/svg" xmlns:xlink="http://www.w3.org/1999/xlink" x="0px" y="0px"
	 width="100%" viewBox="0 0 300 168" enable-background="new 0 0 300 168" xml:space="preserve">
<path fill="#000000" opacity="1.000000" stroke="none" 
	d="
M172.000000,169.000000 
	C114.666672,169.000000 57.833347,169.000000 1.000015,169.000000 
	C1.000010,113.000015 1.000010,57.000027 1.000005,1.000030 
	C100.999977,1.000020 200.999954,1.000020 300.999939,1.000010 
	C300.999969,56.999969 300.999969,112.999939 301.000000,168.999954 
	C258.166656,169.000000 215.333328,169.000000 172.000000,169.000000 
M119.927940,112.971672 
	C120.064583,113.114853 120.201225,113.258041 120.676247,113.665215 
	C120.868591,113.923584 121.007164,114.268021 121.261612,114.426971 
	C123.724144,115.965347 126.206139,117.472588 128.682571,118.988716 
	C128.615051,119.035339 128.547546,119.081970 128.480026,119.128609 
	C130.925278,118.752182 133.966995,119.139404 135.668320,117.810539 
	C137.913528,116.056839 139.107330,112.957054 140.855957,110.278381 
	C139.066696,109.831001 137.955048,109.474709 136.815781,109.279953 
	C119.534203,106.325600 114.754356,93.151955 117.409668,78.988701 
	C118.624023,72.511391 122.091545,66.478210 121.624733,59.436234 
	C121.333061,55.036484 124.283546,53.663284 127.753906,55.822563 
	C134.837830,60.230213 142.292313,60.067936 150.067627,58.957863 
	C152.500061,58.610592 155.174484,58.615105 157.516830,59.261078 
	C162.321686,60.586166 166.388214,59.842285 170.664429,57.233704 
	C172.992355,55.813614 176.264847,55.941952 179.111328,55.371910 
	C179.711456,58.580406 180.314087,61.788445 180.903976,64.998817 
	C180.931931,65.150986 180.795502,65.333031 180.822571,65.485748 
	C181.222946,67.744621 181.031509,70.370659 182.146072,72.199028 
	C190.742950,86.301498 183.014618,105.299240 166.995468,108.957069 
	C165.087509,109.392723 163.157745,109.732788 162.186264,109.927307 
	C162.913712,113.607918 163.825424,116.907608 164.155716,120.264496 
	C164.480286,123.563126 164.215057,126.919853 164.207581,130.251083 
	C164.190323,137.938309 165.388229,138.701920 172.582077,135.588058 
	C195.376404,125.721596 208.068710,102.081932 204.014435,77.044609 
	C199.973740,52.091160 177.611298,33.135902 151.822098,32.804359 
	C125.969719,32.472008 102.711060,50.917221 98.127029,75.387085 
	C93.217499,101.594505 106.989738,126.983780 131.124420,136.218170 
	C136.488022,138.270386 137.749435,137.462677 137.790298,131.928284 
	C137.807129,129.648849 137.793091,127.369194 137.793091,125.167023 
	C135.390656,125.167023 133.437698,125.599808 131.785645,125.078682 
	C128.126892,123.924561 123.835945,123.117470 121.238403,120.654709 
	C117.579575,117.185738 115.221352,112.344986 112.366493,108.177628 
	C116.378426,107.065407 117.188507,107.526375 119.927940,112.971672 
z"/>
<path fill="#FBFBFB" opacity="1.000000" stroke="none" 
	d="
M119.505814,112.554092 
	C117.188507,107.526375 116.378426,107.065407 112.366493,108.177628 
	C115.221352,112.344986 117.579575,117.185738 121.238403,120.654709 
	C123.835945,123.117470 128.126892,123.924561 131.785645,125.078682 
	C133.437698,125.599808 135.390656,125.167023 137.793091,125.167023 
	C137.793091,127.369194 137.807129,129.648849 137.790298,131.928284 
	C137.749435,137.462677 136.488022,138.270386 131.124420,136.218170 
	C106.989738,126.983780 93.217499,101.594505 98.127029,75.387085 
	C102.711060,50.917221 125.969719,32.472008 151.822098,32.804359 
	C177.611298,33.135902 199.973740,52.091160 204.014435,77.044609 
	C208.068710,102.081932 195.376404,125.721596 172.582077,135.588058 
	C165.388229,138.701920 164.190323,137.938309 164.207581,130.251083 
	C164.215057,126.919853 164.480286,123.563126 164.155716,120.264496 
	C163.825424,116.907608 162.913712,113.607918 162.186264,109.927307 
	C163.157745,109.732788 165.087509,109.392723 166.995468,108.957069 
	C183.014618,105.299240 190.742950,86.301498 182.146072,72.199028 
	C181.031509,70.370659 181.222946,67.744621 180.822571,65.485748 
	C180.795502,65.333031 180.931931,65.150986 180.903976,64.998817 
	C180.314087,61.788445 179.711456,58.580406 179.111328,55.371910 
	C176.264847,55.941952 172.992355,55.813614 170.664429,57.233704 
	C166.388214,59.842285 162.321686,60.586166 157.516830,59.261078 
	C155.174484,58.615105 152.500061,58.610592 150.067627,58.957863 
	C142.292313,60.067936 134.837830,60.230213 127.753906,55.822563 
	C124.283546,53.663284 121.333061,55.036484 121.624733,59.436234 
	C122.091545,66.478210 118.624023,72.511391 117.409668,78.988701 
	C114.754356,93.151955 119.534203,106.325600 136.815781,109.279953 
	C137.955048,109.474709 139.066696,109.831001 140.855957,110.278381 
	C139.107330,112.957054 137.913528,116.056839 135.668320,117.810539 
	C133.966995,119.139404 130.925278,118.752182 128.480026,119.128601 
	C128.547546,119.081970 128.615051,119.035339 128.682571,118.988716 
	C126.206139,117.472588 123.724144,115.965347 121.261612,114.426971 
	C121.007164,114.268021 120.868591,113.923584 120.868576,113.636597 
	C120.958344,112.812912 120.855774,112.017830 120.753204,111.222755 
	C120.337402,111.666534 119.921608,112.110313 119.505814,112.554092 
z"/>
<path fill="#000000" opacity="1.000000" stroke="none" 
	d="
M119.716873,112.762878 
	C119.921608,112.110313 120.337402,111.666534 120.753204,111.222755 
	C120.855774,112.017830 120.958344,112.812912 120.699387,113.504608 
	C120.201225,113.258041 120.064583,113.114853 119.716873,112.762878 
z"/>
</svg>