<svg version="1.1" id="Layer_1" xmlns="http://www.w3.org/2000/svg" xmlns:xlink="http://www.w3.org/1999/xlink" x="0px" y="0px"
	 width="100%" viewBox="0 0 300 300" enable-background="new 0 0 300 300" xml:space="preserve">
<path fill="#000000" opacity="1.000000" stroke="none" 
	d="
M197.000000,301.000000 
	C131.333344,301.000000 66.166687,301.000000 1.000026,301.000000 
	C1.000017,201.000031 1.000017,101.000061 1.000009,1.000067 
	C100.999947,1.000044 200.999893,1.000044 300.999878,1.000022 
	C300.999939,100.999939 300.999939,200.999878 300.999969,300.999908 
	C266.500000,301.000000 232.000000,301.000000 197.000000,301.000000 
M112.461830,232.042343 
	C138.276871,232.033386 164.111786,232.649231 189.901047,231.829224 
	C212.936234,231.096786 230.812134,214.017822 231.693542,191.349625 
	C232.734482,164.579178 232.754257,137.707870 231.731033,110.937065 
	C230.864426,88.263298 213.322556,70.979591 190.763687,70.196243 
	C164.650253,69.289459 138.455063,69.217674 112.345451,70.164490 
	C88.172569,71.041069 71.067436,88.212563 70.136230,112.374695 
	C69.174721,137.322723 69.084900,162.363235 70.029327,187.309708 
	C71.023506,213.570419 85.653442,228.415543 112.461830,232.042343 
z"/>
<path fill="#F8F8F8" opacity="1.000000" stroke="none" 
	d="
M112.015472,232.020172 
	C85.653442,228.415543 71.023506,213.570419 70.029327,187.309708 
	C69.084900,162.363235 69.174721,137.322723 70.136230,112.374695 
	C71.067436,88.212563 88.172569,71.041069 112.345451,70.164490 
	C138.455063,69.217674 164.650253,69.289459 190.763687,70.196243 
	C213.322556,70.979591 230.864426,88.263298 231.731033,110.937065 
	C232.754257,137.707870 232.734482,164.579178 231.693542,191.349625 
	C230.812134,214.017822 212.936234,231.096786 189.901047,231.829224 
	C164.111786,232.649231 138.276871,232.033386 112.015472,232.020172 
M100.414070,88.039597 
	C99.951118,88.384735 99.488167,88.729881 98.339485,89.121246 
	C90.142166,94.275139 85.247246,101.952919 85.086029,111.335487 
	C84.626106,138.100479 84.383804,164.897797 85.234421,191.644928 
	C85.673302,205.445435 96.610184,216.320496 110.563568,216.758774 
	C137.476181,217.604126 164.448029,217.526581 191.366852,216.790619 
	C204.216171,216.439331 213.341003,207.756714 216.034332,195.158798 
	C217.547577,188.080627 217.992889,180.657379 217.978271,173.391495 
	C217.936478,152.594330 218.056946,131.761139 216.863266,111.014069 
	C216.011597,96.211151 205.855362,85.790016 191.168945,85.176582 
	C165.585602,84.107986 139.937607,84.381668 114.319603,84.545212 
	C109.873627,84.573601 105.441887,86.831711 100.414070,88.039597 
z"/>
<path fill="#020202" opacity="1.000000" stroke="none" 
	d="
M101.003571,88.059944 
	C105.441887,86.831711 109.873627,84.573601 114.319603,84.545212 
	C139.937607,84.381668 165.585602,84.107986 191.168945,85.176582 
	C205.855362,85.790016 216.011597,96.211151 216.863266,111.014069 
	C218.056946,131.761139 217.936478,152.594330 217.978271,173.391495 
	C217.992889,180.657379 217.547577,188.080627 216.034332,195.158798 
	C213.341003,207.756714 204.216171,216.439331 191.366852,216.790619 
	C164.448029,217.526581 137.476181,217.604126 110.563568,216.758774 
	C96.610184,216.320496 85.673302,205.445435 85.234421,191.644928 
	C84.383804,164.897797 84.626106,138.100479 85.086029,111.335487 
	C85.247246,101.952919 90.142166,94.275139 98.806305,89.351883 
	C99.849937,89.074989 100.426750,88.567467 101.003571,88.059944 
M114.000000,118.000000 
	C114.000000,118.000000 113.996986,117.997688 114.069649,118.676239 
	C115.047279,119.449661 116.024918,120.223076 117.281845,121.651100 
	C117.569481,122.547104 117.857117,123.443108 117.973480,124.986809 
	C107.948967,138.592117 105.934181,153.317612 112.991180,168.661987 
	C119.709717,183.270462 131.680649,191.481567 147.632904,192.824356 
	C169.869873,194.696152 188.356293,179.899414 192.595795,157.609360 
	C196.412125,137.544250 183.414932,116.730865 162.733780,110.717430 
	C148.282455,106.515442 134.976257,109.457230 122.526917,119.046898 
	C120.683372,119.699234 118.839828,120.351570 116.995094,120.211731 
	C115.990479,117.087418 120.201492,113.915710 116.908943,109.968742 
	C117.564461,105.613022 116.490944,101.872208 112.954758,98.415573 
	C112.303650,98.274940 111.652550,98.134315 110.133621,97.958015 
	C107.858322,98.022934 105.583023,98.087860 102.514442,98.067177 
	C101.737984,98.839775 100.961533,99.612381 99.839607,101.032753 
	C98.894264,102.556068 97.475075,103.967979 97.086159,105.622124 
	C95.463257,112.524651 103.049683,118.558716 111.385536,117.176460 
	C112.257805,117.451981 113.130081,117.727501 114.000000,118.000000 
M115.729820,123.175789 
	C115.620285,123.024467 115.510757,122.873138 115.401222,122.721817 
	C115.422768,122.931625 115.444305,123.141441 115.729820,123.175789 
M103.516968,90.416145 
	C103.516968,90.416145 103.579140,90.522247 103.516968,90.416145 
z"/>
<path fill="#0C0C0C" opacity="1.000000" stroke="none" 
	d="
M100.708817,88.049774 
	C100.426750,88.567467 99.849937,89.074989 99.149170,89.328773 
	C99.488167,88.729881 99.951118,88.384735 100.708817,88.049774 
z"/>
<path fill="#F7F7F7" opacity="1.000000" stroke="none" 
	d="
M123.290329,119.121796 
	C134.976257,109.457230 148.282455,106.515442 162.733780,110.717430 
	C183.414932,116.730865 196.412125,137.544250 192.595795,157.609360 
	C188.356293,179.899414 169.869873,194.696152 147.632904,192.824356 
	C131.680649,191.481567 119.709717,183.270462 112.991180,168.661987 
	C105.934181,153.317612 107.948967,138.592117 118.362373,124.510849 
	C120.264290,122.397194 121.777306,120.759491 123.290329,119.121796 
M166.128372,173.771210 
	C178.850037,164.550049 182.219803,148.188034 173.901474,136.028748 
	C165.168976,123.264046 149.009903,119.818527 136.222519,127.994621 
	C123.774017,135.954056 119.917267,152.667236 127.637962,165.195709 
	C135.666977,178.224472 151.761932,182.012573 166.128372,173.771210 
z"/>
<path fill="#F5F5F5" opacity="1.000000" stroke="none" 
	d="
M110.755585,116.884033 
	C103.049683,118.558716 95.463257,112.524651 97.086159,105.622124 
	C97.475075,103.967979 98.894264,102.556068 100.316597,100.590637 
	C101.631638,99.483276 102.469681,98.818039 103.307724,98.152786 
	C105.583023,98.087860 107.858322,98.022934 110.746078,98.210968 
	C111.907135,98.639137 112.455727,98.814362 113.004326,98.989594 
	C116.490944,101.872208 117.564461,105.613022 116.636467,110.594513 
	C114.494522,113.108192 112.625053,114.996109 110.755585,116.884033 
z"/>
<path fill="#0F0F0F" opacity="1.000000" stroke="none" 
	d="
M111.070557,117.030243 
	C112.625053,114.996109 114.494522,113.108192 116.636833,111.016235 
	C120.201492,113.915710 115.990479,117.087418 116.997543,120.605865 
	C117.000000,121.000000 117.002556,120.996490 117.002556,120.996490 
	C116.024918,120.223076 115.047279,119.449661 114.168396,118.284737 
	C114.178871,117.929832 114.090607,117.966423 114.002350,118.003021 
	C113.130081,117.727501 112.257805,117.451981 111.070557,117.030243 
z"/>
<path fill="#0F0F0F" opacity="1.000000" stroke="none" 
	d="
M122.908623,119.084351 
	C121.777306,120.759491 120.264290,122.397194 118.448006,124.186996 
	C117.857117,123.443108 117.569481,122.547104 117.142197,121.323792 
	C117.002556,120.996490 117.000000,121.000000 116.998146,121.001953 
	C118.839828,120.351570 120.683372,119.699234 122.908623,119.084351 
z"/>
<path fill="#1E1E1E" opacity="1.000000" stroke="none" 
	d="
M102.911087,98.109985 
	C102.469681,98.818039 101.631638,99.483276 100.489334,100.266754 
	C100.961533,99.612381 101.737984,98.839775 102.911087,98.109985 
z"/>
<path fill="#1E1E1E" opacity="1.000000" stroke="none" 
	d="
M112.979538,98.702583 
	C112.455727,98.814362 111.907135,98.639137 111.179993,98.228798 
	C111.652550,98.134315 112.303650,98.274940 112.979538,98.702583 
z"/>
<path fill="#0F0F0F" opacity="1.000000" stroke="none" 
	d="
M115.597832,123.263519 
	C115.444305,123.141441 115.422768,122.931625 115.401222,122.721817 
	C115.510757,122.873138 115.620285,123.024467 115.597832,123.263519 
z"/>
<path fill="#0C0C0C" opacity="1.000000" stroke="none" 
	d="
M103.548050,90.469193 
	C103.579140,90.522247 103.516968,90.416145 103.548050,90.469193 
z"/>
<path fill="#030303" opacity="1.000000" stroke="none" 
	d="
M165.794418,173.934387 
	C151.761932,182.012573 135.666977,178.224472 127.637962,165.195709 
	C119.917267,152.667236 123.774017,135.954056 136.222519,127.994621 
	C149.009903,119.818527 165.168976,123.264046 173.901474,136.028748 
	C182.219803,148.188034 178.850037,164.550049 165.794418,173.934387 
z"/>
<path fill="#020202" opacity="1.000000" stroke="none" 
	d="
M114.001175,118.001511 
	C114.090607,117.966423 114.178871,117.929832 114.132065,117.945465 
	C113.996986,117.997688 114.000000,118.000000 114.001175,118.001511 
z"/>
</svg>