<svg version="1.1" id="Layer_1" xmlns="http://www.w3.org/2000/svg" xmlns:xlink="http://www.w3.org/1999/xlink" x="0px" y="0px"
	 width="100%" viewBox="0 0 600 600" enable-background="new 0 0 600 600" xml:space="preserve">
<path fill="#0274B3" opacity="1.000000" stroke="none" 
	d="
M1.000001,564.000000 
	C1.000000,388.975098 1.000000,213.950180 1.384564,38.621078 
	C2.445417,36.395161 3.146717,34.481823 3.794038,32.550392 
	C8.976931,17.086027 19.659279,7.500253 35.188301,3.007091 
	C36.231758,2.705177 37.067596,1.685724 38.000000,1.000000 
	C212.691574,1.000000 387.383148,1.000000 562.382996,1.388578 
	C562.886475,2.037587 563.044250,2.484264 563.282104,2.531935 
	C582.640808,6.412127 594.956238,17.557049 599.192749,37.144974 
	C599.278564,37.541718 600.375061,37.719872 601.000000,38.000000 
	C601.000000,213.024902 601.000000,388.049805 600.627197,563.364685 
	C599.864075,564.148499 599.254822,564.587463 599.115356,565.144165 
	C594.491394,583.606812 583.202087,595.198669 564.355591,599.131287 
	C563.797974,599.247559 563.447205,600.354797 563.000000,601.000000 
	C388.641754,601.000000 214.283524,601.000000 39.617012,600.611450 
	C35.674690,599.062500 31.841745,598.313293 28.441792,596.668945 
	C15.290445,590.308167 6.247395,580.412476 2.922695,565.818970 
	C2.759757,565.103760 1.662298,564.601440 1.000001,564.000000 
M235.091873,474.500000 
	C235.091873,486.440765 235.091873,498.381500 235.091873,510.420654 
	C264.746216,510.420654 293.776581,510.420654 323.091187,510.420654 
	C323.091187,508.030426 323.091156,506.041351 323.091156,504.052307 
	C323.091248,459.227905 322.813324,414.400665 323.275879,369.581024 
	C323.400391,357.517456 324.681580,345.227844 327.358459,333.481018 
	C332.077820,312.771240 345.351135,300.427155 366.938995,297.377686 
	C396.153412,293.250916 414.735504,305.811646 420.012787,334.656555 
	C421.858887,344.747040 422.491730,355.176270 422.549286,365.457153 
	C422.808655,411.779785 422.662659,458.104706 422.662811,504.428802 
	C422.662842,506.380615 422.662842,508.332428 422.662842,510.491455 
	C452.456268,510.491455 481.676392,510.491455 511.027710,510.491455 
	C511.126678,509.020966 511.272278,507.871368 511.271606,506.721832 
	C511.239563,452.733612 511.334351,398.744781 511.085388,344.757507 
	C510.980591,322.029083 508.721100,299.519592 501.036713,277.879272 
	C492.887756,254.930527 478.444855,237.648743 455.613678,228.223312 
	C435.614502,219.967026 414.557831,217.890625 393.306732,220.138046 
	C363.198273,223.322205 338.876251,236.857574 322.488068,263.079712 
	C322.023468,263.823090 321.360229,264.442291 319.751984,266.350677 
	C319.751984,252.215820 319.751984,239.550476 319.751984,226.694855 
	C291.159821,226.694855 263.294983,226.694855 235.091873,226.694855 
	C235.091873,309.233643 235.091873,391.366821 235.091873,474.500000 
M179.337967,317.500244 
	C179.337967,287.255554 179.337967,257.010864 179.337967,226.679489 
	C149.581238,226.679489 120.542679,226.679489 91.603973,226.679489 
	C91.603973,321.570435 91.603973,416.068970 91.603973,510.538879 
	C120.955605,510.538879 149.879044,510.538879 179.337982,510.538879 
	C179.337982,446.337219 179.337982,382.418732 179.337967,317.500244 
M183.944183,153.329483 
	C190.888992,132.093094 185.343781,110.841049 168.420166,96.905479 
	C152.196716,83.546455 133.700653,80.847496 114.619194,89.375343 
	C95.325867,97.997879 84.828217,113.801178 84.357254,134.978638 
	C83.902115,155.444519 93.005630,171.411484 111.163712,181.228836 
	C138.907806,196.228973 170.819351,184.079666 183.944183,153.329483 
z"/>
<path fill="#000000" opacity="1.000000" stroke="none" 
	d="
M563.468628,601.000000 
	C563.447205,600.354797 563.797974,599.247559 564.355591,599.131287 
	C583.202087,595.198669 594.491394,583.606812 599.115356,565.144165 
	C599.254822,564.587463 599.864075,564.148499 600.627197,563.827332 
	C601.000000,576.260925 601.000000,588.521912 601.000000,601.000000 
	C588.646606,601.000000 576.291992,601.000000 563.468628,601.000000 
z"/>
<path fill="#000000" opacity="1.000000" stroke="none" 
	d="
M1.000001,564.468628 
	C1.662298,564.601440 2.759757,565.103760 2.922695,565.818970 
	C6.247395,580.412476 15.290445,590.308167 28.441792,596.668945 
	C31.841745,598.313293 35.674690,599.062500 39.154373,600.611450 
	C26.407688,601.000000 13.815374,601.000000 1.000000,601.000000 
	C1.000000,588.980042 1.000000,576.958679 1.000001,564.468628 
z"/>
<path fill="#000000" opacity="1.000000" stroke="none" 
	d="
M601.000000,37.531342 
	C600.375061,37.719872 599.278564,37.541718 599.192749,37.144974 
	C594.956238,17.557049 582.640808,6.412127 563.282104,2.531935 
	C563.044250,2.484264 562.886475,2.037587 562.845642,1.388578 
	C575.592285,1.000000 588.184631,1.000000 601.000000,1.000000 
	C601.000000,13.019976 601.000000,25.041328 601.000000,37.531342 
z"/>
<path fill="#000000" opacity="1.000000" stroke="none" 
	d="
M37.531342,1.000000 
	C37.067596,1.685724 36.231758,2.705177 35.188301,3.007091 
	C19.659279,7.500253 8.976931,17.086027 3.794038,32.550392 
	C3.146717,34.481823 2.445417,36.395161 1.384564,38.158440 
	C1.000000,25.740049 1.000000,13.480098 1.000000,1.000000 
	C13.020000,1.000000 25.041342,1.000000 37.531342,1.000000 
z"/>
<path fill="#FEFEFF" opacity="1.000000" stroke="none" 
	d="
M235.091873,474.000000 
	C235.091873,391.366821 235.091873,309.233643 235.091873,226.694855 
	C263.294983,226.694855 291.159821,226.694855 319.751984,226.694855 
	C319.751984,239.550476 319.751984,252.215820 319.751984,266.350677 
	C321.360229,264.442291 322.023468,263.823090 322.488068,263.079712 
	C338.876251,236.857574 363.198273,223.322205 393.306732,220.138046 
	C414.557831,217.890625 435.614502,219.967026 455.613678,228.223312 
	C478.444855,237.648743 492.887756,254.930527 501.036713,277.879272 
	C508.721100,299.519592 510.980591,322.029083 511.085388,344.757507 
	C511.334351,398.744781 511.239563,452.733612 511.271606,506.721832 
	C511.272278,507.871368 511.126678,509.020966 511.027710,510.491455 
	C481.676392,510.491455 452.456268,510.491455 422.662842,510.491455 
	C422.662842,508.332428 422.662842,506.380615 422.662811,504.428802 
	C422.662659,458.104706 422.808655,411.779785 422.549286,365.457153 
	C422.491730,355.176270 421.858887,344.747040 420.012787,334.656555 
	C414.735504,305.811646 396.153412,293.250916 366.938995,297.377686 
	C345.351135,300.427155 332.077820,312.771240 327.358459,333.481018 
	C324.681580,345.227844 323.400391,357.517456 323.275879,369.581024 
	C322.813324,414.400665 323.091248,459.227905 323.091156,504.052307 
	C323.091156,506.041351 323.091187,508.030426 323.091187,510.420654 
	C293.776581,510.420654 264.746216,510.420654 235.091873,510.420654 
	C235.091873,498.381500 235.091873,486.440765 235.091873,474.000000 
z"/>
<path fill="#FEFEFF" opacity="1.000000" stroke="none" 
	d="
M179.337982,318.000244 
	C179.337982,382.418732 179.337982,446.337219 179.337982,510.538879 
	C149.879044,510.538879 120.955605,510.538879 91.603973,510.538879 
	C91.603973,416.068970 91.603973,321.570435 91.603973,226.679489 
	C120.542679,226.679489 149.581238,226.679489 179.337967,226.679489 
	C179.337967,257.010864 179.337967,287.255554 179.337982,318.000244 
z"/>
<path fill="#FDFEFE" opacity="1.000000" stroke="none" 
	d="
M183.830719,153.703979 
	C170.819351,184.079666 138.907806,196.228973 111.163712,181.228836 
	C93.005630,171.411484 83.902115,155.444519 84.357254,134.978638 
	C84.828217,113.801178 95.325867,97.997879 114.619194,89.375343 
	C133.700653,80.847496 152.196716,83.546455 168.420166,96.905479 
	C185.343781,110.841049 190.888992,132.093094 183.830719,153.703979 
z"/>
</svg>